<svg xmlns="http://www.w3.org/2000/svg" viewBox="0 0 128 128" role="img" aria-label="Browser Control Agent">
  <defs>
    <linearGradient id="shell" x1="24" y1="14" x2="104" y2="116" gradientUnits="userSpaceOnUse">
      <stop offset="0" stop-color="#3b82f6"/>
      <stop offset="1" stop-color="#1d4ed8"/>
    </linearGradient>
    <linearGradient id="panel" x1="34" y1="38" x2="94" y2="98" gradientUnits="userSpaceOnUse">
      <stop offset="0" stop-color="#ffffff"/>
      <stop offset="1" stop-color="#dbeafe"/>
    </linearGradient>
  </defs>
  <rect width="128" height="128" rx="28" fill="url(#shell)"/>
  <rect x="24" y="26" width="80" height="76" rx="14" fill="#0f172a" opacity="0.18"/>
  <rect x="22" y="22" width="84" height="78" rx="14" fill="url(#panel)"/>
  <path d="M22 40h84" fill="none" stroke="#bfdbfe" stroke-width="6"/>
  <circle cx="36" cy="32" r="4" fill="#2563eb"/>
  <circle cx="50" cy="32" r="4" fill="#60a5fa"/>
  <circle cx="64" cy="32" r="4" fill="#93c5fd"/>
  <path d="M42 60h28M42 74h20" fill="none" stroke="#1e40af" stroke-width="7" stroke-linecap="round"/>
  <circle cx="85" cy="67" r="13" fill="#2563eb"/>
  <path d="M84 54v26M72 67h26" fill="none" stroke="#ffffff" stroke-width="6" stroke-linecap="round"/>
  <path d="M72 92l13-25 14 24-11-3-6 13-5-3 6-12-11 6z" fill="#0f172a" opacity="0.86"/>
</svg>
